<?xml version="1.0"?>
<VTKFile type="UnstructuredGrid" version="0.1" byte_order="BigEndian">
<UnstructuredGrid GhostLevel="0">
<Piece NumberOfPoints="960" NumberOfCells="120" ><Points>
<DataArray type="Float64" NumberOfComponents="3" format="ascii">
0	1	15	0	1	14.5	0.5	1	15	0.5	1	14.5	0.5	0.5	15	0.5	0.5	14.5	0	0.5	15	0	0.5	14.5	0.5	1	15	0.5	1	14.5	1	1	15	1	1	14.5	1	0.5	15	1	0.5	14.5	0.5	0.5	15	0.5	0.5	14.5	0	0.5	15	0	0.5	14.5	0.5	0.5	15	0.5	0.5	14.5	0.5	0	15	0.5	0	14.5	0	0	15	0	0	14.5	0.5	0.5	15	0.5	0.5	14.5	1	0.5	15	1	0.5	14.5	1	0	15	1	0	14.5	0.5	0	15	0.5	0	14.5	0	1	14.5	0	1	14	0.5	1	14.5	0.5	1	14	0.5	0.5	14.5	0.5	0.5	14	0	0.5	14.5	0	0.5	14	0.5	1	14.5	0.5	1	14	1	1	14.5	1	1	14	1	0.5	14.5	1	0.5	14	0.5	0.5	14.5	0.5	0.5	14	0	0.5	14.5	0	0.5	14	0.5	0.5	14.5	0.5	0.5	14	0.5	0	14.5	0.5	0	14	0	0	14.5	0	0	14	0.5	0.5	14.5	0.5	0.5	14	1	0.5	14.5	1	0.5	14	1	0	14.5	1	0	14	0.5	0	14.5	0.5	0	14	0	1	14	0	1	13.5	0.5	1	14	0.5	1	13.5	0.5	0.5	14	0.5	0.5	13.5	0	0.5	14	0	0.5	13.5	0.5	1	14	0.5	1	13.5	1	1	14	1	1	13.5	1	0.5	14	1	0.5	13.5	0.5	0.5	14	0.5	0.5	13.5	0	0.5	14	0	0.5	13.5	0.5	0.5	14	0.5	0.5	13.5	0.5	0	14	0.5	0	13.5	0	0	14	0	0	13.5	0.5	0.5	14	0.5	0.5	13.5	1	0.5	14	1	0.5	13.5	1	0	14	1	0	13.5	0.5	0	14	0.5	0	13.5	0	1	13.5	0	1	13	0.5	1	13.5	0.5	1	13	0.5	0.5	13.5	0.5	0.5	13	0	0.5	13.5	0	0.5	13	0.5	1	13.5	0.5	1	13	1	1	13.5	1	1	13	1	0.5	13.5	1	0.5	13	0.5	0.5	13.5	0.5	0.5	13	0	0.5	13.5	0	0.5	13	0.5	0.5	13.5	0.5	0.5	13	0.5	0	13.5	0.5	0	13	0	0	13.5	0	0	13	0.5	0.5	13.5	0.5	0.5	13	1	0.5	13.5	1	0.5	13	1	0	13.5	1	0	13	0.5	0	13.5	0.5	0	13	0	1	13	0	1	12.5	0.5	1	13	0.5	1	12.5	0.5	0.5	13	0.5	0.5	12.5	0	0.5	13	0	0.5	12.5	0.5	1	13	0.5	1	12.5	1	1	13	1	1	12.5	1	0.5	13	1	0.5	12.5	0.5	0.5	13	0.5	0.5	12.5	0	0.5	13	0	0.5	12.5	0.5	0.5	13	0.5	0.5	12.5	0.5	0	13	0.5	0	12.5	0	0	13	0	0	12.5	0.5	0.5	13	0.5	0.5	12.5	1	0.5	13	1	0.5	12.5	1	0	13	1	0	12.5	0.5	0	13	0.5	0	12.5	0	1	12.5	0	1	12	0.5	1	12.5	0.5	1	12	0.5	0.5	12.5	0.5	0.5	12	0	0.5	12.5	0	0.5	12	0.5	1	12.5	0.5	1	12	1	1	12.5	1	1	12	1	0.5	12.5	1	0.5	12	0.5	0.5	12.5	0.5	0.5	12	0	0.5	12.5	0	0.5	12	0.5	0.5	12.5	0.5	0.5	12	0.5	0	12.5	0.5	0	12	0	0	12.5	0	0	12	0.5	0.5	12.5	0.5	0.5	12	1	0.5	12.5	1	0.5	12	1	0	12.5	1	0	12	0.5	0	12.5	0.5	0	12	0	1	12	0	1	11.5	0.5	1	12	0.5	1	11.5	0.5	0.5	12	0.5	0.5	11.5	0	0.5	12	0	0.5	11.5	0.5	1	12	0.5	1	11.5	1	1	12	1	1	11.5	1	0.5	12	1	0.5	11.5	0.5	0.5	12	0.5	0.5	11.5	0	0.5	12	0	0.5	11.5	0.5	0.5	12	0.5	0.5	11.5	0.5	0	12	0.5	0	11.5	0	0	12	0	0	11.5	0.5	0.5	12	0.5	0.5	11.5	1	0.5	12	1	0.5	11.5	1	0	12	1	0	11.5	0.5	0	12	0.5	0	11.5	0	1	11.5	0	1	11	0.5	1	11.5	0.5	1	11	0.5	0.5	11.5	0.5	0.5	11	0	0.5	11.5	0	0.5	11	0.5	1	11.5	0.5	1	11	1	1	11.5	1	1	11	1	0.5	11.5	1	0.5	11	0.5	0.5	11.5	0.5	0.5	11	0	0.5	11.5	0	0.5	11	0.5	0.5	11.5	0.5	0.5	11	0.5	0	11.5	0.5	0	11	0	0	11.5	0	0	11	0.5	0.5	11.5	0.5	0.5	11	1	0.5	11.5	1	0.5	11	1	0	11.5	1	0	11	0.5	0	11.5	0.5	0	11	0	1	11	0	1	10.5	0.5	1	11	0.5	1	10.5	0.5	0.5	11	0.5	0.5	10.5	0	0.5	11	0	0.5	10.5	0.5	1	11	0.5	1	10.5	1	1	11	1	1	10.5	1	0.5	11	1	0.5	10.5	0.5	0.5	11	0.5	0.5	10.5	0	0.5	11	0	0.5	10.5	0.5	0.5	11	0.5	0.5	10.5	0.5	0	11	0.5	0	10.5	0	0	11	0	0	10.5	0.5	0.5	11	0.5	0.5	10.5	1	0.5	11	1	0.5	10.5	1	0	11	1	0	10.5	0.5	0	11	0.5	0	10.5	0	1	10.5	0	1	10	0.5	1	10.5	0.5	1	10	0.5	0.5	10.5	0.5	0.5	10	0	0.5	10.5	0	0.5	10	0.5	1	10.5	0.5	1	10	1	1	10.5	1	1	10	1	0.5	10.5	1	0.5	10	0.5	0.5	10.5	0.5	0.5	10	0	0.5	10.5	0	0.5	10	0.5	0.5	10.5	0.5	0.5	10	0.5	0	10.5	0.5	0	10	0	0	10.5	0	0	10	0.5	0.5	10.5	0.5	0.5	10	1	0.5	10.5	1	0.5	10	1	0	10.5	1	0	10	0.5	0	10.5	0.5	0	10	0	1	10	0	1	9.5	0.5	1	10	0.5	1	9.5	0.5	0.5	10	0.5	0.5	9.5	0	0.5	10	0	0.5	9.5	0.5	1	10	0.5	1	9.5	1	1	10	1	1	9.5	1	0.5	10	1	0.5	9.5	0.5	0.5	10	0.5	0.5	9.5	0	0.5	10	0	0.5	9.5	0.5	0.5	10	0.5	0.5	9.5	0.5	0	10	0.5	0	9.5	0	0	10	0	0	9.5	0.5	0.5	10	0.5	0.5	9.5	1	0.5	10	1	0.5	9.5	1	0	10	1	0	9.5	0.5	0	10	0.5	0	9.5	0	1	9.5	0	1	9	0.5	1	9.5	0.5	1	9	0.5	0.5	9.5	0.5	0.5	9	0	0.5	9.5	0	0.5	9	0.5	1	9.5	0.5	1	9	1	1	9.5	1	1	9	1	0.5	9.5	1	0.5	9	0.5	0.5	9.5	0.5	0.5	9	0	0.5	9.5	0	0.5	9	0.5	0.5	9.5	0.5	0.5	9	0.5	0	9.5	0.5	0	9	0	0	9.5	0	0	9	0.5	0.5	9.5	0.5	0.5	9	1	0.5	9.5	1	0.5	9	1	0	9.5	1	0	9	0.5	0	9.5	0.5	0	9	0	1	9	0	1	8.5	0.5	1	9	0.5	1	8.5	0.5	0.5	9	0.5	0.5	8.5	0	0.5	9	0	0.5	8.5	0.5	1	9	0.5	1	8.5	1	1	9	1	1	8.5	1	0.5	9	1	0.5	8.5	0.5	0.5	9	0.5	0.5	8.5	0	0.5	9	0	0.5	8.5	0.5	0.5	9	0.5	0.5	8.5	0.5	0	9	0.5	0	8.5	0	0	9	0	0	8.5	0.5	0.5	9	0.5	0.5	8.5	1	0.5	9	1	0.5	8.5	1	0	9	1	0	8.5	0.5	0	9	0.5	0	8.5	0	1	8.5	0	1	8	0.5	1	8.5	0.5	1	8	0.5	0.5	8.5	0.5	0.5	8	0	0.5	8.5	0	0.5	8	0.5	1	8.5	0.5	1	8	1	1	8.5	1	1	8	1	0.5	8.5	1	0.5	8	0.5	0.5	8.5	0.5	0.5	8	0	0.5	8.5	0	0.5	8	0.5	0.5	8.5	0.5	0.5	8	0.5	0	8.5	0.5	0	8	0	0	8.5	0	0	8	0.5	0.5	8.5	0.5	0.5	8	1	0.5	8.5	1	0.5	8	1	0	8.5	1	0	8	0.5	0	8.5	0.5	0	8	0	1	8	0	1	7.5	0.5	1	8	0.5	1	7.5	0.5	0.5	8	0.5	0.5	7.5	0	0.5	8	0	0.5	7.5	0.5	1	8	0.5	1	7.5	1	1	8	1	1	7.5	1	0.5	8	1	0.5	7.5	0.5	0.5	8	0.5	0.5	7.5	0	0.5	8	0	0.5	7.5	0.5	0.5	8	0.5	0.5	7.5	0.5	0	8	0.5	0	7.5	0	0	8	0	0	7.5	0.5	0.5	8	0.5	0.5	7.5	1	0.5	8	1	0.5	7.5	1	0	8	1	0	7.5	0.5	0	8	0.5	0	7.5	0	1	7.5	0	1	7	0.5	1	7.5	0.5	1	7	0.5	0.5	7.5	0.5	0.5	7	0	0.5	7.5	0	0.5	7	0.5	1	7.5	0.5	1	7	1	1	7.5	1	1	7	1	0.5	7.5	1	0.5	7	0.5	0.5	7.5	0.5	0.5	7	0	0.5	7.5	0	0.5	7	0.5	0.5	7.5	0.5	0.5	7	0.5	0	7.5	0.5	0	7	0	0	7.5	0	0	7	0.5	0.5	7.5	0.5	0.5	7	1	0.5	7.5	1	0.5	7	1	0	7.5	1	0	7	0.5	0	7.5	0.5	0	7	0	1	7	0	1	6.5	0.5	1	7	0.5	1	6.5	0.5	0.5	7	0.5	0.5	6.5	0	0.5	7	0	0.5	6.5	0.5	1	7	0.5	1	6.5	1	1	7	1	1	6.5	1	0.5	7	1	0.5	6.5	0.5	0.5	7	0.5	0.5	6.5	0	0.5	7	0	0.5	6.5	0.5	0.5	7	0.5	0.5	6.5	0.5	0	7	0.5	0	6.5	0	0	7	0	0	6.5	0.5	0.5	7	0.5	0.5	6.5	1	0.5	7	1	0.5	6.5	1	0	7	1	0	6.5	0.5	0	7	0.5	0	6.5	0	1	6.5	0	1	6	0.5	1	6.5	0.5	1	6	0.5	0.5	6.5	0.5	0.5	6	0	0.5	6.5	0	0.5	6	0.5	1	6.5	0.5	1	6	1	1	6.5	1	1	6	1	0.5	6.5	1	0.5	6	0.5	0.5	6.5	0.5	0.5	6	0	0.5	6.5	0	0.5	6	0.5	0.5	6.5	0.5	0.5	6	0.5	0	6.5	0.5	0	6	0	0	6.5	0	0	6	0.5	0.5	6.5	0.5	0.5	6	1	0.5	6.5	1	0.5	6	1	0	6.5	1	0	6	0.5	0	6.5	0.5	0	6	0	1	6	0	1	5.5	0.5	1	6	0.5	1	5.5	0.5	0.5	6	0.5	0.5	5.5	0	0.5	6	0	0.5	5.5	0.5	1	6	0.5	1	5.5	1	1	6	1	1	5.5	1	0.5	6	1	0.5	5.5	0.5	0.5	6	0.5	0.5	5.5	0	0.5	6	0	0.5	5.5	0.5	0.5	6	0.5	0.5	5.5	0.5	0	6	0.5	0	5.5	0	0	6	0	0	5.5	0.5	0.5	6	0.5	0.5	5.5	1	0.5	6	1	0.5	5.5	1	0	6	1	0	5.5	0.5	0	6	0.5	0	5.5	0	1	5.5	0	1	5	0.5	1	5.5	0.5	1	5	0.5	0.5	5.5	0.5	0.5	5	0	0.5	5.5	0	0.5	5	0.5	1	5.5	0.5	1	5	1	1	5.5	1	1	5	1	0.5	5.5	1	0.5	5	0.5	0.5	5.5	0.5	0.5	5	0	0.5	5.5	0	0.5	5	0.5	0.5	5.5	0.5	0.5	5	0.5	0	5.5	0.5	0	5	0	0	5.5	0	0	5	0.5	0.5	5.5	0.5	0.5	5	1	0.5	5.5	1	0.5	5	1	0	5.5	1	0	5	0.5	0	5.5	0.5	0	5	0	1	5	0	1	4.5	0.5	1	5	0.5	1	4.5	0.5	0.5	5	0.5	0.5	4.5	0	0.5	5	0	0.5	4.5	0.5	1	5	0.5	1	4.5	1	1	5	1	1	4.5	1	0.5	5	1	0.5	4.5	0.5	0.5	5	0.5	0.5	4.5	0	0.5	5	0	0.5	4.5	0.5	0.5	5	0.5	0.5	4.5	0.5	0	5	0.5	0	4.5	0	0	5	0	0	4.5	0.5	0.5	5	0.5	0.5	4.5	1	0.5	5	1	0.5	4.5	1	0	5	1	0	4.5	0.5	0	5	0.5	0	4.5	0	1	4.5	0	1	4	0.5	1	4.5	0.5	1	4	0.5	0.5	4.5	0.5	0.5	4	0	0.5	4.5	0	0.5	4	0.5	1	4.5	0.5	1	4	1	1	4.5	1	1	4	1	0.5	4.5	1	0.5	4	0.5	0.5	4.5	0.5	0.5	4	0	0.5	4.5	0	0.5	4	0.5	0.5	4.5	0.5	0.5	4	0.5	0	4.5	0.5	0	4	0	0	4.5	0	0	4	0.5	0.5	4.5	0.5	0.5	4	1	0.5	4.5	1	0.5	4	1	0	4.5	1	0	4	0.5	0	4.5	0.5	0	4	0	1	4	0	1	3.5	0.5	1	4	0.5	1	3.5	0.5	0.5	4	0.5	0.5	3.5	0	0.5	4	0	0.5	3.5	0.5	1	4	0.5	1	3.5	1	1	4	1	1	3.5	1	0.5	4	1	0.5	3.5	0.5	0.5	4	0.5	0.5	3.5	0	0.5	4	0	0.5	3.5	0.5	0.5	4	0.5	0.5	3.5	0.5	0	4	0.5	0	3.5	0	0	4	0	0	3.5	0.5	0.5	4	0.5	0.5	3.5	1	0.5	4	1	0.5	3.5	1	0	4	1	0	3.5	0.5	0	4	0.5	0	3.5	0	1	3.5	0	1	3	0.5	1	3.5	0.5	1	3	0.5	0.5	3.5	0.5	0.5	3	0	0.5	3.5	0	0.5	3	0.5	1	3.5	0.5	1	3	1	1	3.5	1	1	3	1	0.5	3.5	1	0.5	3	0.5	0.5	3.5	0.5	0.5	3	0	0.5	3.5	0	0.5	3	0.5	0.5	3.5	0.5	0.5	3	0.5	0	3.5	0.5	0	3	0	0	3.5	0	0	3	0.5	0.5	3.5	0.5	0.5	3	1	0.5	3.5	1	0.5	3	1	0	3.5	1	0	3	0.5	0	3.5	0.5	0	3	0	1	3	0	1	2.5	0.5	1	3	0.5	1	2.5	0.5	0.5	3	0.5	0.5	2.5	0	0.5	3	0	0.5	2.5	0.5	1	3	0.5	1	2.5	1	1	3	1	1	2.5	1	0.5	3	1	0.5	2.5	0.5	0.5	3	0.5	0.5	2.5	0	0.5	3	0	0.5	2.5	0.5	0.5	3	0.5	0.5	2.5	0.5	0	3	0.5	0	2.5	0	0	3	0	0	2.5	0.5	0.5	3	0.5	0.5	2.5	1	0.5	3	1	0.5	2.5	1	0	3	1	0	2.5	0.5	0	3	0.5	0	2.5	0	1	2.5	0	1	2	0.5	1	2.5	0.5	1	2	0.5	0.5	2.5	0.5	0.5	2	0	0.5	2.5	0	0.5	2	0.5	1	2.5	0.5	1	2	1	1	2.5	1	1	2	1	0.5	2.5	1	0.5	2	0.5	0.5	2.5	0.5	0.5	2	0	0.5	2.5	0	0.5	2	0.5	0.5	2.5	0.5	0.5	2	0.5	0	2.5	0.5	0	2	0	0	2.5	0	0	2	0.5	0.5	2.5	0.5	0.5	2	1	0.5	2.5	1	0.5	2	1	0	2.5	1	0	2	0.5	0	2.5	0.5	0	2	0	1	2	0	1	1.5	0.5	1	2	0.5	1	1.5	0.5	0.5	2	0.5	0.5	1.5	0	0.5	2	0	0.5	1.5	0.5	1	2	0.5	1	1.5	1	1	2	1	1	1.5	1	0.5	2	1	0.5	1.5	0.5	0.5	2	0.5	0.5	1.5	0	0.5	2	0	0.5	1.5	0.5	0.5	2	0.5	0.5	1.5	0.5	0	2	0.5	0	1.5	0	0	2	0	0	1.5	0.5	0.5	2	0.5	0.5	1.5	1	0.5	2	1	0.5	1.5	1	0	2	1	0	1.5	0.5	0	2	0.5	0	1.5	0	1	1.5	0	1	1	0.5	1	1.5	0.5	1	1	0.5	0.5	1.5	0.5	0.5	1	0	0.5	1.5	0	0.5	1	0.5	1	1.5	0.5	1	1	1	1	1.5	1	1	1	1	0.5	1.5	1	0.5	1	0.5	0.5	1.5	0.5	0.5	1	0	0.5	1.5	0	0.5	1	0.5	0.5	1.5	0.5	0.5	1	0.5	0	1.5	0.5	0	1	0	0	1.5	0	0	1	0.5	0.5	1.5	0.5	0.5	1	1	0.5	1.5	1	0.5	1	1	0	1.5	1	0	1	0.5	0	1.5	0.5	0	1	0	1	1	0	1	0.5	0.5	1	1	0.5	1	0.5	0.5	0.5	1	0.5	0.5	0.5	0	0.5	1	0	0.5	0.5	0.5	1	1	0.5	1	0.5	1	1	1	1	1	0.5	1	0.5	1	1	0.5	0.5	0.5	0.5	1	0.5	0.5	0.5	0	0.5	1	0	0.5	0.5	0.5	0.5	1	0.5	0.5	0.5	0.5	0	1	0.5	0	0.5	0	0	1	0	0	0.5	0.5	0.5	1	0.5	0.5	0.5	1	0.5	1	1	0.5	0.5	1	0	1	1	0	0.5	0.5	0	1	0.5	0	0.5	0	1	0.5	0	1	0	0.5	1	0.5	0.5	1	0	0.5	0.5	0.5	0.5	0.5	0	0	0.5	0.5	0	0.5	0	0.5	1	0.5	0.5	1	0	1	1	0.5	1	1	0	1	0.5	0.5	1	0.5	0	0.5	0.5	0.5	0.5	0.5	0	0	0.5	0.5	0	0.5	0	0.5	0.5	0.5	0.5	0.5	0	0.5	0	0.5	0.5	0	0	0	0	0.5	0	0	0	0.5	0.5	0.5	0.5	0.5	0	1	0.5	0.5	1	0.5	0	1	0	0.5	1	0	0	0.5	0	0.5	0.5	0	0	
</DataArray>
</Points>
<Cells>
<DataArray type="Int32" Name="connectivity" format="ascii">
0	6	2	4	1	7	3	5
8	14	10	12	9	15	11	13
16	22	18	20	17	23	19	21
24	30	26	28	25	31	27	29
32	38	34	36	33	39	35	37
40	46	42	44	41	47	43	45
48	54	50	52	49	55	51	53
56	62	58	60	57	63	59	61
64	70	66	68	65	71	67	69
72	78	74	76	73	79	75	77
80	86	82	84	81	87	83	85
88	94	90	92	89	95	91	93
96	102	98	100	97	103	99	101
104	110	106	108	105	111	107	109
112	118	114	116	113	119	115	117
120	126	122	124	121	127	123	125
128	134	130	132	129	135	131	133
136	142	138	140	137	143	139	141
144	150	146	148	145	151	147	149
152	158	154	156	153	159	155	157
160	166	162	164	161	167	163	165
168	174	170	172	169	175	171	173
176	182	178	180	177	183	179	181
184	190	186	188	185	191	187	189
192	198	194	196	193	199	195	197
200	206	202	204	201	207	203	205
208	214	210	212	209	215	211	213
216	222	218	220	217	223	219	221
224	230	226	228	225	231	227	229
232	238	234	236	233	239	235	237
240	246	242	244	241	247	243	245
248	254	250	252	249	255	251	253
256	262	258	260	257	263	259	261
264	270	266	268	265	271	267	269
272	278	274	276	273	279	275	277
280	286	282	284	281	287	283	285
288	294	290	292	289	295	291	293
296	302	298	300	297	303	299	301
304	310	306	308	305	311	307	309
312	318	314	316	313	319	315	317
320	326	322	324	321	327	323	325
328	334	330	332	329	335	331	333
336	342	338	340	337	343	339	341
344	350	346	348	345	351	347	349
352	358	354	356	353	359	355	357
360	366	362	364	361	367	363	365
368	374	370	372	369	375	371	373
376	382	378	380	377	383	379	381
384	390	386	388	385	391	387	389
392	398	394	396	393	399	395	397
400	406	402	404	401	407	403	405
408	414	410	412	409	415	411	413
416	422	418	420	417	423	419	421
424	430	426	428	425	431	427	429
432	438	434	436	433	439	435	437
440	446	442	444	441	447	443	445
448	454	450	452	449	455	451	453
456	462	458	460	457	463	459	461
464	470	466	468	465	471	467	469
472	478	474	476	473	479	475	477
480	486	482	484	481	487	483	485
488	494	490	492	489	495	491	493
496	502	498	500	497	503	499	501
504	510	506	508	505	511	507	509
512	518	514	516	513	519	515	517
520	526	522	524	521	527	523	525
528	534	530	532	529	535	531	533
536	542	538	540	537	543	539	541
544	550	546	548	545	551	547	549
552	558	554	556	553	559	555	557
560	566	562	564	561	567	563	565
568	574	570	572	569	575	571	573
576	582	578	580	577	583	579	581
584	590	586	588	585	591	587	589
592	598	594	596	593	599	595	597
600	606	602	604	601	607	603	605
608	614	610	612	609	615	611	613
616	622	618	620	617	623	619	621
624	630	626	628	625	631	627	629
632	638	634	636	633	639	635	637
640	646	642	644	641	647	643	645
648	654	650	652	649	655	651	653
656	662	658	660	657	663	659	661
664	670	666	668	665	671	667	669
672	678	674	676	673	679	675	677
680	686	682	684	681	687	683	685
688	694	690	692	689	695	691	693
696	702	698	700	697	703	699	701
704	710	706	708	705	711	707	709
712	718	714	716	713	719	715	717
720	726	722	724	721	727	723	725
728	734	730	732	729	735	731	733
736	742	738	740	737	743	739	741
744	750	746	748	745	751	747	749
752	758	754	756	753	759	755	757
760	766	762	764	761	767	763	765
768	774	770	772	769	775	771	773
776	782	778	780	777	783	779	781
784	790	786	788	785	791	787	789
792	798	794	796	793	799	795	797
800	806	802	804	801	807	803	805
808	814	810	812	809	815	811	813
816	822	818	820	817	823	819	821
824	830	826	828	825	831	827	829
832	838	834	836	833	839	835	837
840	846	842	844	841	847	843	845
848	854	850	852	849	855	851	853
856	862	858	860	857	863	859	861
864	870	866	868	865	871	867	869
872	878	874	876	873	879	875	877
880	886	882	884	881	887	883	885
888	894	890	892	889	895	891	893
896	902	898	900	897	903	899	901
904	910	906	908	905	911	907	909
912	918	914	916	913	919	915	917
920	926	922	924	921	927	923	925
928	934	930	932	929	935	931	933
936	942	938	940	937	943	939	941
944	950	946	948	945	951	947	949
952	958	954	956	953	959	955	957
</DataArray>
<DataArray type="Int32" Name="offsets" format="ascii">
8	16	24	32	40	48	56	64	72	80	88	96	104	112	120	128	136	144	152	160	168	176	184	192	200	208	216	224	232	240	248	256	264	272	280	288	296	304	312	320	328	336	344	352	360	368	376	384	392	400	408	416	424	432	440	448	456	464	472	480	488	496	504	512	520	528	536	544	552	560	568	576	584	592	600	608	616	624	632	640	648	656	664	672	680	688	696	704	712	720	728	736	744	752	760	768	776	784	792	800	808	816	824	832	840	848	856	864	872	880	888	896	904	912	920	928	936	944	952	960	
</DataArray>
<DataArray type="UInt8" Name="types" format="ascii">
11	11	11	11	11	11	11	11	11	11	11	11	11	11	11	11	11	11	11	11	11	11	11	11	11	11	11	11	11	11	11	11	11	11	11	11	11	11	11	11	11	11	11	11	11	11	11	11	11	11	11	11	11	11	11	11	11	11	11	11	11	11	11	11	11	11	11	11	11	11	11	11	11	11	11	11	11	11	11	11	11	11	11	11	11	11	11	11	11	11	11	11	11	11	11	11	11	11	11	11	11	11	11	11	11	11	11	11	11	11	11	11	11	11	11	11	11	11	11	11	</DataArray>
</Cells>
<CellData Scalars="scalars">
<DataArray type="Int32" Name="nodeid" format="ascii">1	2	3	4	5	6	7	8	9	10	11	12	13	14	15	16	17	18	19	20	21	22	23	24	25	26	27	28	29	30	31	32	33	34	35	36	37	38	39	40	41	42	43	44	45	46	47	48	49	50	51	52	53	54	55	56	57	58	59	60	61	62	63	64	65	66	67	68	69	70	71	72	73	74	75	76	77	78	79	80	81	82	83	84	85	86	87	88	89	90	91	92	93	94	95	96	97	98	99	100	101	102	103	104	105	106	107	108	109	110	111	112	113	114	115	116	117	118	119	120	</DataArray>
<DataArray type="Int32" Name="nodenumber" format="ascii">1	2	3	4	5	6	7	8	9	10	11	12	13	14	15	16	17	18	19	20	21	22	23	24	25	26	27	28	29	30	31	32	33	34	35	36	37	38	39	40	41	42	43	44	45	46	47	48	49	50	51	52	53	54	55	56	57	58	59	60	61	62	63	64	65	66	67	68	69	70	71	72	73	74	75	76	77	78	79	80	81	82	83	84	85	86	87	88	89	90	91	92	93	94	95	96	97	98	99	100	101	102	103	104	105	106	107	108	109	110	111	112	113	114	115	116	117	118	119	120	</DataArray>
<DataArray type="Int32" Name="layer" format="ascii">1	1	1	1	2	2	2	2	3	3	3	3	4	4	4	4	5	5	5	5	6	6	6	6	7	7	7	7	8	8	8	8	9	9	9	9	10	10	10	10	11	11	11	11	12	12	12	12	13	13	13	13	14	14	14	14	15	15	15	15	16	16	16	16	17	17	17	17	18	18	18	18	19	19	19	19	20	20	20	20	21	21	21	21	22	22	22	22	23	23	23	23	24	24	24	24	25	25	25	25	26	26	26	26	27	27	27	27	28	28	28	28	29	29	29	29	30	30	30	30	</DataArray>
<DataArray type="Int32" Name="row" format="ascii">1	1	2	2	1	1	2	2	1	1	2	2	1	1	2	2	1	1	2	2	1	1	2	2	1	1	2	2	1	1	2	2	1	1	2	2	1	1	2	2	1	1	2	2	1	1	2	2	1	1	2	2	1	1	2	2	1	1	2	2	1	1	2	2	1	1	2	2	1	1	2	2	1	1	2	2	1	1	2	2	1	1	2	2	1	1	2	2	1	1	2	2	1	1	2	2	1	1	2	2	1	1	2	2	1	1	2	2	1	1	2	2	1	1	2	2	1	1	2	2	</DataArray>
<DataArray type="Int32" Name="col" format="ascii">1	2	1	2	1	2	1	2	1	2	1	2	1	2	1	2	1	2	1	2	1	2	1	2	1	2	1	2	1	2	1	2	1	2	1	2	1	2	1	2	1	2	1	2	1	2	1	2	1	2	1	2	1	2	1	2	1	2	1	2	1	2	1	2	1	2	1	2	1	2	1	2	1	2	1	2	1	2	1	2	1	2	1	2	1	2	1	2	1	2	1	2	1	2	1	2	1	2	1	2	1	2	1	2	1	2	1	2	1	2	1	2	1	2	1	2	1	2	1	2	</DataArray>
<DataArray type="Int32" Name="vtkid" format="ascii">8	16	24	32	40	48	56	64	72	80	88	96	104	112	120	128	136	144	152	160	168	176	184	192	200	208	216	224	232	240	248	256	264	272	280	288	296	304	312	320	328	336	344	352	360	368	376	384	392	400	408	416	424	432	440	448	456	464	472	480	488	496	504	512	520	528	536	544	552	560	568	576	584	592	600	608	616	624	632	640	648	656	664	672	680	688	696	704	712	720	728	736	744	752	760	768	776	784	792	800	808	816	824	832	840	848	856	864	872	880	888	896	904	912	920	928	936	944	952	960	</DataArray>
<DataArray type="Float64" Name="top" format="ascii">15	15	15	15	14.5	14.5	14.5	14.5	14	14	14	14	13.5	13.5	13.5	13.5	13	13	13	13	12.5	12.5	12.5	12.5	12	12	12	12	11.5	11.5	11.5	11.5	11	11	11	11	10.5	10.5	10.5	10.5	10	10	10	10	9.5	9.5	9.5	9.5	9	9	9	9	8.5	8.5	8.5	8.5	8	8	8	8	7.5	7.5	7.5	7.5	7	7	7	7	6.5	6.5	6.5	6.5	6	6	6	6	5.5	5.5	5.5	5.5	5	5	5	5	4.5	4.5	4.5	4.5	4	4	4	4	3.5	3.5	3.5	3.5	3	3	3	3	2.5	2.5	2.5	2.5	2	2	2	2	1.5	1.5	1.5	1.5	1	1	1	1	0.5	0.5	0.5	0.5	</DataArray>
<DataArray type="Float64" Name="bottom" format="ascii">14.5	14.5	14.5	14.5	14	14	14	14	13.5	13.5	13.5	13.5	13	13	13	13	12.5	12.5	12.5	12.5	12	12	12	12	11.5	11.5	11.5	11.5	11	11	11	11	10.5	10.5	10.5	10.5	10	10	10	10	9.5	9.5	9.5	9.5	9	9	9	9	8.5	8.5	8.5	8.5	8	8	8	8	7.5	7.5	7.5	7.5	7	7	7	7	6.5	6.5	6.5	6.5	6	6	6	6	5.5	5.5	5.5	5.5	5	5	5	5	4.5	4.5	4.5	4.5	4	4	4	4	3.5	3.5	3.5	3.5	3	3	3	3	2.5	2.5	2.5	2.5	2	2	2	2	1.5	1.5	1.5	1.5	1	1	1	1	0.5	0.5	0.5	0.5	0	0	0	0	</DataArray>
<DataArray type="Float64" Name="delr" format="ascii">0.5	0.5	0.5	0.5	0.5	0.5	0.5	0.5	0.5	0.5	0.5	0.5	0.5	0.5	0.5	0.5	0.5	0.5	0.5	0.5	0.5	0.5	0.5	0.5	0.5	0.5	0.5	0.5	0.5	0.5	0.5	0.5	0.5	0.5	0.5	0.5	0.5	0.5	0.5	0.5	0.5	0.5	0.5	0.5	0.5	0.5	0.5	0.5	0.5	0.5	0.5	0.5	0.5	0.5	0.5	0.5	0.5	0.5	0.5	0.5	0.5	0.5	0.5	0.5	0.5	0.5	0.5	0.5	0.5	0.5	0.5	0.5	0.5	0.5	0.5	0.5	0.5	0.5	0.5	0.5	0.5	0.5	0.5	0.5	0.5	0.5	0.5	0.5	0.5	0.5	0.5	0.5	0.5	0.5	0.5	0.5	0.5	0.5	0.5	0.5	0.5	0.5	0.5	0.5	0.5	0.5	0.5	0.5	0.5	0.5	0.5	0.5	0.5	0.5	0.5	0.5	0.5	0.5	0.5	0.5	</DataArray>
<DataArray type="Float64" Name="delc" format="ascii">0.5	0.5	0.5	0.5	0.5	0.5	0.5	0.5	0.5	0.5	0.5	0.5	0.5	0.5	0.5	0.5	0.5	0.5	0.5	0.5	0.5	0.5	0.5	0.5	0.5	0.5	0.5	0.5	0.5	0.5	0.5	0.5	0.5	0.5	0.5	0.5	0.5	0.5	0.5	0.5	0.5	0.5	0.5	0.5	0.5	0.5	0.5	0.5	0.5	0.5	0.5	0.5	0.5	0.5	0.5	0.5	0.5	0.5	0.5	0.5	0.5	0.5	0.5	0.5	0.5	0.5	0.5	0.5	0.5	0.5	0.5	0.5	0.5	0.5	0.5	0.5	0.5	0.5	0.5	0.5	0.5	0.5	0.5	0.5	0.5	0.5	0.5	0.5	0.5	0.5	0.5	0.5	0.5	0.5	0.5	0.5	0.5	0.5	0.5	0.5	0.5	0.5	0.5	0.5	0.5	0.5	0.5	0.5	0.5	0.5	0.5	0.5	0.5	0.5	0.5	0.5	0.5	0.5	0.5	0.5	</DataArray>
</CellData>
</Piece>
</UnstructuredGrid>
</VTKFile>
