<?xml version="1.0"?>
<VTKFile type="UnstructuredGrid" version="0.1" byte_order="BigEndian">
<UnstructuredGrid GhostLevel="0">
<Piece NumberOfPoints="279" NumberOfCells="120" ><Points>
<DataArray type="Float32" NumberOfComponents="3" format="ascii">
0	1	15	0	0.5	15	0.5	1	15	0.5	0.5	15	0	1	14.5	0	0.5	14.5	0.5	1	14.5	0.5	0.5	14.5	1	1	15	1	0.5	15	1	1	14.5	1	0.5	14.5	0	0	15	0.5	0	15	0	0	14.5	0.5	0	14.5	1	0	15	1	0	14.5	0	1	14	0	0.5	14	0.5	1	14	0.5	0.5	14	1	1	14	1	0.5	14	0	0	14	0.5	0	14	1	0	14	0	1	13.5	0	0.5	13.5	0.5	1	13.5	0.5	0.5	13.5	1	1	13.5	1	0.5	13.5	0	0	13.5	0.5	0	13.5	1	0	13.5	0	1	13	0	0.5	13	0.5	1	13	0.5	0.5	13	1	1	13	1	0.5	13	0	0	13	0.5	0	13	1	0	13	0	1	12.5	0	0.5	12.5	0.5	1	12.5	0.5	0.5	12.5	1	1	12.5	1	0.5	12.5	0	0	12.5	0.5	0	12.5	1	0	12.5	0	1	12	0	0.5	12	0.5	1	12	0.5	0.5	12	1	1	12	1	0.5	12	0	0	12	0.5	0	12	1	0	12	0	1	11.5	0	0.5	11.5	0.5	1	11.5	0.5	0.5	11.5	1	1	11.5	1	0.5	11.5	0	0	11.5	0.5	0	11.5	1	0	11.5	0	1	11	0	0.5	11	0.5	1	11	0.5	0.5	11	1	1	11	1	0.5	11	0	0	11	0.5	0	11	1	0	11	0	1	10.5	0	0.5	10.5	0.5	1	10.5	0.5	0.5	10.5	1	1	10.5	1	0.5	10.5	0	0	10.5	0.5	0	10.5	1	0	10.5	0	1	10	0	0.5	10	0.5	1	10	0.5	0.5	10	1	1	10	1	0.5	10	0	0	10	0.5	0	10	1	0	10	0	1	9.5	0	0.5	9.5	0.5	1	9.5	0.5	0.5	9.5	1	1	9.5	1	0.5	9.5	0	0	9.5	0.5	0	9.5	1	0	9.5	0	1	9	0	0.5	9	0.5	1	9	0.5	0.5	9	1	1	9	1	0.5	9	0	0	9	0.5	0	9	1	0	9	0	1	8.5	0	0.5	8.5	0.5	1	8.5	0.5	0.5	8.5	1	1	8.5	1	0.5	8.5	0	0	8.5	0.5	0	8.5	1	0	8.5	0	1	8	0	0.5	8	0.5	1	8	0.5	0.5	8	1	1	8	1	0.5	8	0	0	8	0.5	0	8	1	0	8	0	1	7.5	0	0.5	7.5	0.5	1	7.5	0.5	0.5	7.5	1	1	7.5	1	0.5	7.5	0	0	7.5	0.5	0	7.5	1	0	7.5	0	1	7	0	0.5	7	0.5	1	7	0.5	0.5	7	1	1	7	1	0.5	7	0	0	7	0.5	0	7	1	0	7	0	1	6.5	0	0.5	6.5	0.5	1	6.5	0.5	0.5	6.5	1	1	6.5	1	0.5	6.5	0	0	6.5	0.5	0	6.5	1	0	6.5	0	1	6	0	0.5	6	0.5	1	6	0.5	0.5	6	1	1	6	1	0.5	6	0	0	6	0.5	0	6	1	0	6	0	1	5.5	0	0.5	5.5	0.5	1	5.5	0.5	0.5	5.5	1	1	5.5	1	0.5	5.5	0	0	5.5	0.5	0	5.5	1	0	5.5	0	1	5	0	0.5	5	0.5	1	5	0.5	0.5	5	1	1	5	1	0.5	5	0	0	5	0.5	0	5	1	0	5	0	1	4.5	0	0.5	4.5	0.5	1	4.5	0.5	0.5	4.5	1	1	4.5	1	0.5	4.5	0	0	4.5	0.5	0	4.5	1	0	4.5	0	1	4	0	0.5	4	0.5	1	4	0.5	0.5	4	1	1	4	1	0.5	4	0	0	4	0.5	0	4	1	0	4	0	1	3.5	0	0.5	3.5	0.5	1	3.5	0.5	0.5	3.5	1	1	3.5	1	0.5	3.5	0	0	3.5	0.5	0	3.5	1	0	3.5	0	1	3	0	0.5	3	0.5	1	3	0.5	0.5	3	1	1	3	1	0.5	3	0	0	3	0.5	0	3	1	0	3	0	1	2.5	0	0.5	2.5	0.5	1	2.5	0.5	0.5	2.5	1	1	2.5	1	0.5	2.5	0	0	2.5	0.5	0	2.5	1	0	2.5	0	1	2	0	0.5	2	0.5	1	2	0.5	0.5	2	1	1	2	1	0.5	2	0	0	2	0.5	0	2	1	0	2	0	1	1.5	0	0.5	1.5	0.5	1	1.5	0.5	0.5	1.5	1	1	1.5	1	0.5	1.5	0	0	1.5	0.5	0	1.5	1	0	1.5	0	1	1	0	0.5	1	0.5	1	1	0.5	0.5	1	1	1	1	1	0.5	1	0	0	1	0.5	0	1	1	0	1	0	1	0.5	0	0.5	0.5	0.5	1	0.5	0.5	0.5	0.5	1	1	0.5	1	0.5	0.5	0	0	0.5	0.5	0	0.5	1	0	0.5	0	1	0	0	0.5	0	0.5	1	0	0.5	0.5	0	1	1	0	1	0.5	0	0	0	0	0.5	0	0	1	0	0	
</DataArray>
</Points>
<Cells>
<DataArray type="Int32" Name="connectivity" format="ascii">
0	1	2	3	4	5	6	7
2	3	8	9	6	7	10	11
1	12	3	13	5	14	7	15
3	13	9	16	7	15	11	17
4	5	6	7	18	19	20	21
6	7	10	11	20	21	22	23
5	14	7	15	19	24	21	25
7	15	11	17	21	25	23	26
18	19	20	21	27	28	29	30
20	21	22	23	29	30	31	32
19	24	21	25	28	33	30	34
21	25	23	26	30	34	32	35
27	28	29	30	36	37	38	39
29	30	31	32	38	39	40	41
28	33	30	34	37	42	39	43
30	34	32	35	39	43	41	44
36	37	38	39	45	46	47	48
38	39	40	41	47	48	49	50
37	42	39	43	46	51	48	52
39	43	41	44	48	52	50	53
45	46	47	48	54	55	56	57
47	48	49	50	56	57	58	59
46	51	48	52	55	60	57	61
48	52	50	53	57	61	59	62
54	55	56	57	63	64	65	66
56	57	58	59	65	66	67	68
55	60	57	61	64	69	66	70
57	61	59	62	66	70	68	71
63	64	65	66	72	73	74	75
65	66	67	68	74	75	76	77
64	69	66	70	73	78	75	79
66	70	68	71	75	79	77	80
72	73	74	75	81	82	83	84
74	75	76	77	83	84	85	86
73	78	75	79	82	87	84	88
75	79	77	80	84	88	86	89
81	82	83	84	90	91	92	93
83	84	85	86	92	93	94	95
82	87	84	88	91	96	93	97
84	88	86	89	93	97	95	98
90	91	92	93	99	100	101	102
92	93	94	95	101	102	103	104
91	96	93	97	100	105	102	106
93	97	95	98	102	106	104	107
99	100	101	102	108	109	110	111
101	102	103	104	110	111	112	113
100	105	102	106	109	114	111	115
102	106	104	107	111	115	113	116
108	109	110	111	117	118	119	120
110	111	112	113	119	120	121	122
109	114	111	115	118	123	120	124
111	115	113	116	120	124	122	125
117	118	119	120	126	127	128	129
119	120	121	122	128	129	130	131
118	123	120	124	127	132	129	133
120	124	122	125	129	133	131	134
126	127	128	129	135	136	137	138
128	129	130	131	137	138	139	140
127	132	129	133	136	141	138	142
129	133	131	134	138	142	140	143
135	136	137	138	144	145	146	147
137	138	139	140	146	147	148	149
136	141	138	142	145	150	147	151
138	142	140	143	147	151	149	152
144	145	146	147	153	154	155	156
146	147	148	149	155	156	157	158
145	150	147	151	154	159	156	160
147	151	149	152	156	160	158	161
153	154	155	156	162	163	164	165
155	156	157	158	164	165	166	167
154	159	156	160	163	168	165	169
156	160	158	161	165	169	167	170
162	163	164	165	171	172	173	174
164	165	166	167	173	174	175	176
163	168	165	169	172	177	174	178
165	169	167	170	174	178	176	179
171	172	173	174	180	181	182	183
173	174	175	176	182	183	184	185
172	177	174	178	181	186	183	187
174	178	176	179	183	187	185	188
180	181	182	183	189	190	191	192
182	183	184	185	191	192	193	194
181	186	183	187	190	195	192	196
183	187	185	188	192	196	194	197
189	190	191	192	198	199	200	201
191	192	193	194	200	201	202	203
190	195	192	196	199	204	201	205
192	196	194	197	201	205	203	206
198	199	200	201	207	208	209	210
200	201	202	203	209	210	211	212
199	204	201	205	208	213	210	214
201	205	203	206	210	214	212	215
207	208	209	210	216	217	218	219
209	210	211	212	218	219	220	221
208	213	210	214	217	222	219	223
210	214	212	215	219	223	221	224
216	217	218	219	225	226	227	228
218	219	220	221	227	228	229	230
217	222	219	223	226	231	228	232
219	223	221	224	228	232	230	233
225	226	227	228	234	235	236	237
227	228	229	230	236	237	238	239
226	231	228	232	235	240	237	241
228	232	230	233	237	241	239	242
234	235	236	237	243	244	245	246
236	237	238	239	245	246	247	248
235	240	237	241	244	249	246	250
237	241	239	242	246	250	248	251
243	244	245	246	252	253	254	255
245	246	247	248	254	255	256	257
244	249	246	250	253	258	255	259
246	250	248	251	255	259	257	260
252	253	254	255	261	262	263	264
254	255	256	257	263	264	265	266
253	258	255	259	262	267	264	268
255	259	257	260	264	268	266	269
261	262	263	264	270	271	272	273
263	264	265	266	272	273	274	275
262	267	264	268	271	276	273	277
264	268	266	269	273	277	275	278
</DataArray>
<DataArray type="Int32" Name="offsets" format="ascii">
8	16	24	32	40	48	56	64	72	80	88	96	104	112	120	128	136	144	152	160	168	176	184	192	200	208	216	224	232	240	248	256	264	272	280	288	296	304	312	320	328	336	344	352	360	368	376	384	392	400	408	416	424	432	440	448	456	464	472	480	488	496	504	512	520	528	536	544	552	560	568	576	584	592	600	608	616	624	632	640	648	656	664	672	680	688	696	704	712	720	728	736	744	752	760	768	776	784	792	800	808	816	824	832	840	848	856	864	872	880	888	896	904	912	920	928	936	944	952	960	
</DataArray>
<DataArray type="UInt8" Name="types" format="ascii">
11	11	11	11	11	11	11	11	11	11	11	11	11	11	11	11	11	11	11	11	11	11	11	11	11	11	11	11	11	11	11	11	11	11	11	11	11	11	11	11	11	11	11	11	11	11	11	11	11	11	11	11	11	11	11	11	11	11	11	11	11	11	11	11	11	11	11	11	11	11	11	11	11	11	11	11	11	11	11	11	11	11	11	11	11	11	11	11	11	11	11	11	11	11	11	11	11	11	11	11	11	11	11	11	11	11	11	11	11	11	11	11	11	11	11	11	11	11	11	11	</DataArray>
</Cells>
<CellData Scalars="scalars">
<DataArray type="Int32" Name="nodeid" format="ascii">1	2	3	4	5	6	7	8	9	10	11	12	13	14	15	16	17	18	19	20	21	22	23	24	25	26	27	28	29	30	31	32	33	34	35	36	37	38	39	40	41	42	43	44	45	46	47	48	49	50	51	52	53	54	55	56	57	58	59	60	61	62	63	64	65	66	67	68	69	70	71	72	73	74	75	76	77	78	79	80	81	82	83	84	85	86	87	88	89	90	91	92	93	94	95	96	97	98	99	100	101	102	103	104	105	106	107	108	109	110	111	112	113	114	115	116	117	118	119	120	</DataArray>
<DataArray type="Int32" Name="nodenumber" format="ascii">1	2	3	4	5	6	7	8	9	10	11	12	13	14	15	16	17	18	19	20	21	22	23	24	25	26	27	28	29	30	31	32	33	34	35	36	37	38	39	40	41	42	43	44	45	46	47	48	49	50	51	52	53	54	55	56	57	58	59	60	61	62	63	64	65	66	67	68	69	70	71	72	73	74	75	76	77	78	79	80	81	82	83	84	85	86	87	88	89	90	91	92	93	94	95	96	97	98	99	100	101	102	103	104	105	106	107	108	109	110	111	112	113	114	115	116	117	118	119	120	</DataArray>
<DataArray type="Int32" Name="layer" format="ascii">1	1	1	1	2	2	2	2	3	3	3	3	4	4	4	4	5	5	5	5	6	6	6	6	7	7	7	7	8	8	8	8	9	9	9	9	10	10	10	10	11	11	11	11	12	12	12	12	13	13	13	13	14	14	14	14	15	15	15	15	16	16	16	16	17	17	17	17	18	18	18	18	19	19	19	19	20	20	20	20	21	21	21	21	22	22	22	22	23	23	23	23	24	24	24	24	25	25	25	25	26	26	26	26	27	27	27	27	28	28	28	28	29	29	29	29	30	30	30	30	</DataArray>
<DataArray type="Int32" Name="row" format="ascii">1	1	2	2	1	1	2	2	1	1	2	2	1	1	2	2	1	1	2	2	1	1	2	2	1	1	2	2	1	1	2	2	1	1	2	2	1	1	2	2	1	1	2	2	1	1	2	2	1	1	2	2	1	1	2	2	1	1	2	2	1	1	2	2	1	1	2	2	1	1	2	2	1	1	2	2	1	1	2	2	1	1	2	2	1	1	2	2	1	1	2	2	1	1	2	2	1	1	2	2	1	1	2	2	1	1	2	2	1	1	2	2	1	1	2	2	1	1	2	2	</DataArray>
<DataArray type="Int32" Name="col" format="ascii">1	2	1	2	1	2	1	2	1	2	1	2	1	2	1	2	1	2	1	2	1	2	1	2	1	2	1	2	1	2	1	2	1	2	1	2	1	2	1	2	1	2	1	2	1	2	1	2	1	2	1	2	1	2	1	2	1	2	1	2	1	2	1	2	1	2	1	2	1	2	1	2	1	2	1	2	1	2	1	2	1	2	1	2	1	2	1	2	1	2	1	2	1	2	1	2	1	2	1	2	1	2	1	2	1	2	1	2	1	2	1	2	1	2	1	2	1	2	1	2	</DataArray>
<DataArray type="Int32" Name="vtkid" format="ascii">0	1	2	3	4	5	6	7	8	9	10	11	12	13	14	15	16	17	18	19	20	21	22	23	24	25	26	27	28	29	30	31	32	33	34	35	36	37	38	39	40	41	42	43	44	45	46	47	48	49	50	51	52	53	54	55	56	57	58	59	60	61	62	63	64	65	66	67	68	69	70	71	72	73	74	75	76	77	78	79	80	81	82	83	84	85	86	87	88	89	90	91	92	93	94	95	96	97	98	99	100	101	102	103	104	105	106	107	108	109	110	111	112	113	114	115	116	117	118	119	</DataArray>
<DataArray type="Float32" Name="top" format="ascii">15	15	15	15	14.5	14.5	14.5	14.5	14	14	14	14	13.5	13.5	13.5	13.5	13	13	13	13	12.5	12.5	12.5	12.5	12	12	12	12	11.5	11.5	11.5	11.5	11	11	11	11	10.5	10.5	10.5	10.5	10	10	10	10	9.5	9.5	9.5	9.5	9	9	9	9	8.5	8.5	8.5	8.5	8	8	8	8	7.5	7.5	7.5	7.5	7	7	7	7	6.5	6.5	6.5	6.5	6	6	6	6	5.5	5.5	5.5	5.5	5	5	5	5	4.5	4.5	4.5	4.5	4	4	4	4	3.5	3.5	3.5	3.5	3	3	3	3	2.5	2.5	2.5	2.5	2	2	2	2	1.5	1.5	1.5	1.5	1	1	1	1	0.5	0.5	0.5	0.5	</DataArray>
<DataArray type="Float32" Name="bottom" format="ascii">14.5	14.5	14.5	14.5	14	14	14	14	13.5	13.5	13.5	13.5	13	13	13	13	12.5	12.5	12.5	12.5	12	12	12	12	11.5	11.5	11.5	11.5	11	11	11	11	10.5	10.5	10.5	10.5	10	10	10	10	9.5	9.5	9.5	9.5	9	9	9	9	8.5	8.5	8.5	8.5	8	8	8	8	7.5	7.5	7.5	7.5	7	7	7	7	6.5	6.5	6.5	6.5	6	6	6	6	5.5	5.5	5.5	5.5	5	5	5	5	4.5	4.5	4.5	4.5	4	4	4	4	3.5	3.5	3.5	3.5	3	3	3	3	2.5	2.5	2.5	2.5	2	2	2	2	1.5	1.5	1.5	1.5	1	1	1	1	0.5	0.5	0.5	0.5	0	0	0	0	</DataArray>
<DataArray type="Float32" Name="delr" format="ascii">0.5	0.5	0.5	0.5	0.5	0.5	0.5	0.5	0.5	0.5	0.5	0.5	0.5	0.5	0.5	0.5	0.5	0.5	0.5	0.5	0.5	0.5	0.5	0.5	0.5	0.5	0.5	0.5	0.5	0.5	0.5	0.5	0.5	0.5	0.5	0.5	0.5	0.5	0.5	0.5	0.5	0.5	0.5	0.5	0.5	0.5	0.5	0.5	0.5	0.5	0.5	0.5	0.5	0.5	0.5	0.5	0.5	0.5	0.5	0.5	0.5	0.5	0.5	0.5	0.5	0.5	0.5	0.5	0.5	0.5	0.5	0.5	0.5	0.5	0.5	0.5	0.5	0.5	0.5	0.5	0.5	0.5	0.5	0.5	0.5	0.5	0.5	0.5	0.5	0.5	0.5	0.5	0.5	0.5	0.5	0.5	0.5	0.5	0.5	0.5	0.5	0.5	0.5	0.5	0.5	0.5	0.5	0.5	0.5	0.5	0.5	0.5	0.5	0.5	0.5	0.5	0.5	0.5	0.5	0.5	</DataArray>
<DataArray type="Float32" Name="delc" format="ascii">0.5	0.5	0.5	0.5	0.5	0.5	0.5	0.5	0.5	0.5	0.5	0.5	0.5	0.5	0.5	0.5	0.5	0.5	0.5	0.5	0.5	0.5	0.5	0.5	0.5	0.5	0.5	0.5	0.5	0.5	0.5	0.5	0.5	0.5	0.5	0.5	0.5	0.5	0.5	0.5	0.5	0.5	0.5	0.5	0.5	0.5	0.5	0.5	0.5	0.5	0.5	0.5	0.5	0.5	0.5	0.5	0.5	0.5	0.5	0.5	0.5	0.5	0.5	0.5	0.5	0.5	0.5	0.5	0.5	0.5	0.5	0.5	0.5	0.5	0.5	0.5	0.5	0.5	0.5	0.5	0.5	0.5	0.5	0.5	0.5	0.5	0.5	0.5	0.5	0.5	0.5	0.5	0.5	0.5	0.5	0.5	0.5	0.5	0.5	0.5	0.5	0.5	0.5	0.5	0.5	0.5	0.5	0.5	0.5	0.5	0.5	0.5	0.5	0.5	0.5	0.5	0.5	0.5	0.5	0.5	</DataArray>
</CellData>
</Piece>
</UnstructuredGrid>
</VTKFile>
